{
  "asset": {
    "version": "2.0",
    "generator": "pbrt_to_gltf.py"
  },
  "scene": 0,
  "scenes": [
    {
      "name": "cornell-box",
      "nodes": [
        9
      ]
    }
  ],
  "nodes": [
    {
      "name": "00_Floor",
      "mesh": 0
    },
    {
      "name": "01_Ceiling",
      "mesh": 1
    },
    {
      "name": "02_BackWall",
      "mesh": 2
    },
    {
      "name": "03_RightWall",
      "mesh": 3
    },
    {
      "name": "04_LeftWall",
      "mesh": 4
    },
    {
      "name": "05_ShortBox",
      "mesh": 5
    },
    {
      "name": "06_TallBox",
      "mesh": 6
    },
    {
      "name": "07_Light",
      "mesh": 7,
      "extras": {
        "pbrt": {
          "areaLightSource": {
            "type": "diffuse",
            "rgb_L": [
              17.0,
              12.0,
              4.0
            ],
            "twosided": false
          }
        }
      }
    },
    {
      "name": "Camera",
      "camera": 0,
      "matrix": [
        1.0,
        0.0,
        0.0,
        0.0,
        0.0,
        1.0,
        0.0,
        0.0,
        0.0,
        0.0,
        1.0,
        0.0,
        0.0,
        1.0,
        6.8,
        1.0
      ]
    },
    {
      "name": "cornell-box_root",
      "translation": [
        0.0,
        0.0,
        0.0
      ],
      "children": [
        0,
        1,
        2,
        3,
        4,
        5,
        6,
        7,
        8
      ]
    }
  ],
  "meshes": [
    {
      "name": "00_Floor",
      "primitives": [
        {
          "attributes": {
            "POSITION": 0,
            "NORMAL": 1,
            "TEXCOORD_0": 2
          },
          "indices": 3,
          "material": 2,
          "mode": 4
        }
      ]
    },
    {
      "name": "01_Ceiling",
      "primitives": [
        {
          "attributes": {
            "POSITION": 4,
            "NORMAL": 5,
            "TEXCOORD_0": 6
          },
          "indices": 7,
          "material": 3,
          "mode": 4
        }
      ]
    },
    {
      "name": "02_BackWall",
      "primitives": [
        {
          "attributes": {
            "POSITION": 8,
            "NORMAL": 9,
            "TEXCOORD_0": 10
          },
          "indices": 11,
          "material": 4,
          "mode": 4
        }
      ]
    },
    {
      "name": "03_RightWall",
      "primitives": [
        {
          "attributes": {
            "POSITION": 12,
            "NORMAL": 13,
            "TEXCOORD_0": 14
          },
          "indices": 15,
          "material": 1,
          "mode": 4
        }
      ]
    },
    {
      "name": "04_LeftWall",
      "primitives": [
        {
          "attributes": {
            "POSITION": 16,
            "NORMAL": 17,
            "TEXCOORD_0": 18
          },
          "indices": 19,
          "material": 0,
          "mode": 4
        }
      ]
    },
    {
      "name": "05_ShortBox",
      "primitives": [
        {
          "attributes": {
            "POSITION": 20,
            "NORMAL": 21,
            "TEXCOORD_0": 22
          },
          "indices": 23,
          "material": 5,
          "mode": 4
        }
      ]
    },
    {
      "name": "06_TallBox",
      "primitives": [
        {
          "attributes": {
            "POSITION": 24,
            "NORMAL": 25,
            "TEXCOORD_0": 26
          },
          "indices": 27,
          "material": 6,
          "mode": 4
        }
      ]
    },
    {
      "name": "07_Light",
      "primitives": [
        {
          "attributes": {
            "POSITION": 28,
            "NORMAL": 29,
            "TEXCOORD_0": 30
          },
          "indices": 31,
          "material": 7,
          "mode": 4
        }
      ]
    }
  ],
  "materials": [
    {
      "name": "LeftWall",
      "doubleSided": false,
      "pbrMetallicRoughness": {
        "baseColorFactor": [
          0.63,
          0.065,
          0.05,
          1.0
        ],
        "metallicFactor": 0.0,
        "roughnessFactor": 1.0
      },
      "extras": {
        "pbrt": {
          "type": "diffuse",
          "reflectance_rgb": [
            0.63,
            0.065,
            0.05
          ]
        }
      }
    },
    {
      "name": "RightWall",
      "doubleSided": false,
      "pbrMetallicRoughness": {
        "baseColorFactor": [
          0.14,
          0.45,
          0.091,
          1.0
        ],
        "metallicFactor": 0.0,
        "roughnessFactor": 1.0
      },
      "extras": {
        "pbrt": {
          "type": "diffuse",
          "reflectance_rgb": [
            0.14,
            0.45,
            0.091
          ]
        }
      }
    },
    {
      "name": "Floor",
      "doubleSided": false,
      "pbrMetallicRoughness": {
        "baseColorFactor": [
          0.725,
          0.71,
          0.68,
          1.0
        ],
        "metallicFactor": 0.0,
        "roughnessFactor": 1.0
      },
      "extras": {
        "pbrt": {
          "type": "diffuse",
          "reflectance_rgb": [
            0.725,
            0.71,
            0.68
          ]
        }
      }
    },
    {
      "name": "Ceiling",
      "doubleSided": false,
      "pbrMetallicRoughness": {
        "baseColorFactor": [
          0.725,
          0.71,
          0.68,
          1.0
        ],
        "metallicFactor": 0.0,
        "roughnessFactor": 1.0
      },
      "extras": {
        "pbrt": {
          "type": "diffuse",
          "reflectance_rgb": [
            0.725,
            0.71,
            0.68
          ]
        }
      }
    },
    {
      "name": "BackWall",
      "doubleSided": false,
      "pbrMetallicRoughness": {
        "baseColorFactor": [
          0.725,
          0.71,
          0.68,
          1.0
        ],
        "metallicFactor": 0.0,
        "roughnessFactor": 1.0
      },
      "extras": {
        "pbrt": {
          "type": "diffuse",
          "reflectance_rgb": [
            0.725,
            0.71,
            0.68
          ]
        }
      }
    },
    {
      "name": "ShortBox",
      "doubleSided": false,
      "pbrMetallicRoughness": {
        "baseColorFactor": [
          0.725,
          0.71,
          0.68,
          1.0
        ],
        "metallicFactor": 0.0,
        "roughnessFactor": 1.0
      },
      "extras": {
        "pbrt": {
          "type": "diffuse",
          "reflectance_rgb": [
            0.725,
            0.71,
            0.68
          ]
        }
      }
    },
    {
      "name": "TallBox",
      "doubleSided": false,
      "pbrMetallicRoughness": {
        "baseColorFactor": [
          0.725,
          0.71,
          0.68,
          1.0
        ],
        "metallicFactor": 0.0,
        "roughnessFactor": 1.0
      },
      "extras": {
        "pbrt": {
          "type": "diffuse",
          "reflectance_rgb": [
            0.725,
            0.71,
            0.68
          ]
        }
      }
    },
    {
      "name": "Light",
      "doubleSided": false,
      "pbrMetallicRoughness": {
        "baseColorFactor": [
          0.0,
          0.0,
          0.0,
          1.0
        ],
        "metallicFactor": 0.0,
        "roughnessFactor": 1.0
      },
      "extras": {
        "pbrt": {
          "type": "diffuse",
          "reflectance_rgb": [
            0.0,
            0.0,
            0.0
          ],
          "area_light_radiance_rgb": [
            17.0,
            12.0,
            4.0
          ],
          "area_light_twosided": false
        }
      },
      "emissiveFactor": [
        1.0,
        0.705882,
        0.235294
      ]
    }
  ],
  "buffers": [
    {
      "uri": "cornell_box.bin",
      "byteLength": 2520
    }
  ],
  "bufferViews": [
    {
      "buffer": 0,
      "byteOffset": 0,
      "byteLength": 48,
      "target": 34962
    },
    {
      "buffer": 0,
      "byteOffset": 48,
      "byteLength": 48,
      "target": 34962
    },
    {
      "buffer": 0,
      "byteOffset": 96,
      "byteLength": 32,
      "target": 34962
    },
    {
      "buffer": 0,
      "byteOffset": 128,
      "byteLength": 12,
      "target": 34963
    },
    {
      "buffer": 0,
      "byteOffset": 140,
      "byteLength": 48,
      "target": 34962
    },
    {
      "buffer": 0,
      "byteOffset": 188,
      "byteLength": 48,
      "target": 34962
    },
    {
      "buffer": 0,
      "byteOffset": 236,
      "byteLength": 32,
      "target": 34962
    },
    {
      "buffer": 0,
      "byteOffset": 268,
      "byteLength": 12,
      "target": 34963
    },
    {
      "buffer": 0,
      "byteOffset": 280,
      "byteLength": 48,
      "target": 34962
    },
    {
      "buffer": 0,
      "byteOffset": 328,
      "byteLength": 48,
      "target": 34962
    },
    {
      "buffer": 0,
      "byteOffset": 376,
      "byteLength": 32,
      "target": 34962
    },
    {
      "buffer": 0,
      "byteOffset": 408,
      "byteLength": 12,
      "target": 34963
    },
    {
      "buffer": 0,
      "byteOffset": 420,
      "byteLength": 48,
      "target": 34962
    },
    {
      "buffer": 0,
      "byteOffset": 468,
      "byteLength": 48,
      "target": 34962
    },
    {
      "buffer": 0,
      "byteOffset": 516,
      "byteLength": 32,
      "target": 34962
    },
    {
      "buffer": 0,
      "byteOffset": 548,
      "byteLength": 12,
      "target": 34963
    },
    {
      "buffer": 0,
      "byteOffset": 560,
      "byteLength": 48,
      "target": 34962
    },
    {
      "buffer": 0,
      "byteOffset": 608,
      "byteLength": 48,
      "target": 34962
    },
    {
      "buffer": 0,
      "byteOffset": 656,
      "byteLength": 32,
      "target": 34962
    },
    {
      "buffer": 0,
      "byteOffset": 688,
      "byteLength": 12,
      "target": 34963
    },
    {
      "buffer": 0,
      "byteOffset": 700,
      "byteLength": 288,
      "target": 34962
    },
    {
      "buffer": 0,
      "byteOffset": 988,
      "byteLength": 288,
      "target": 34962
    },
    {
      "buffer": 0,
      "byteOffset": 1276,
      "byteLength": 192,
      "target": 34962
    },
    {
      "buffer": 0,
      "byteOffset": 1468,
      "byteLength": 72,
      "target": 34963
    },
    {
      "buffer": 0,
      "byteOffset": 1540,
      "byteLength": 288,
      "target": 34962
    },
    {
      "buffer": 0,
      "byteOffset": 1828,
      "byteLength": 288,
      "target": 34962
    },
    {
      "buffer": 0,
      "byteOffset": 2116,
      "byteLength": 192,
      "target": 34962
    },
    {
      "buffer": 0,
      "byteOffset": 2308,
      "byteLength": 72,
      "target": 34963
    },
    {
      "buffer": 0,
      "byteOffset": 2380,
      "byteLength": 48,
      "target": 34962
    },
    {
      "buffer": 0,
      "byteOffset": 2428,
      "byteLength": 48,
      "target": 34962
    },
    {
      "buffer": 0,
      "byteOffset": 2476,
      "byteLength": 32,
      "target": 34962
    },
    {
      "buffer": 0,
      "byteOffset": 2508,
      "byteLength": 12,
      "target": 34963
    }
  ],
  "accessors": [
    {
      "bufferView": 0,
      "componentType": 5126,
      "count": 4,
      "type": "VEC3",
      "min": [
        -1.0,
        -1.74846e-07,
        -1.0
      ],
      "max": [
        1.0,
        1.74846e-07,
        1.0
      ]
    },
    {
      "bufferView": 1,
      "componentType": 5126,
      "count": 4,
      "type": "VEC3"
    },
    {
      "bufferView": 2,
      "componentType": 5126,
      "count": 4,
      "type": "VEC2"
    },
    {
      "bufferView": 3,
      "componentType": 5123,
      "count": 6,
      "type": "SCALAR"
    },
    {
      "bufferView": 4,
      "componentType": 5126,
      "count": 4,
      "type": "VEC3",
      "min": [
        -1.0,
        2.0,
        -1.0
      ],
      "max": [
        1.0,
        2.0,
        1.0
      ]
    },
    {
      "bufferView": 5,
      "componentType": 5126,
      "count": 4,
      "type": "VEC3"
    },
    {
      "bufferView": 6,
      "componentType": 5126,
      "count": 4,
      "type": "VEC2"
    },
    {
      "bufferView": 7,
      "componentType": 5123,
      "count": 6,
      "type": "SCALAR"
    },
    {
      "bufferView": 8,
      "componentType": 5126,
      "count": 4,
      "type": "VEC3",
      "min": [
        -1.0,
        0.0,
        -1.0
      ],
      "max": [
        1.0,
        2.0,
        -1.0
      ]
    },
    {
      "bufferView": 9,
      "componentType": 5126,
      "count": 4,
      "type": "VEC3"
    },
    {
      "bufferView": 10,
      "componentType": 5126,
      "count": 4,
      "type": "VEC2"
    },
    {
      "bufferView": 11,
      "componentType": 5123,
      "count": 6,
      "type": "SCALAR"
    },
    {
      "bufferView": 12,
      "componentType": 5126,
      "count": 4,
      "type": "VEC3",
      "min": [
        1.0,
        0.0,
        -1.0
      ],
      "max": [
        1.0,
        2.0,
        1.0
      ]
    },
    {
      "bufferView": 13,
      "componentType": 5126,
      "count": 4,
      "type": "VEC3"
    },
    {
      "bufferView": 14,
      "componentType": 5126,
      "count": 4,
      "type": "VEC2"
    },
    {
      "bufferView": 15,
      "componentType": 5123,
      "count": 6,
      "type": "SCALAR"
    },
    {
      "bufferView": 16,
      "componentType": 5126,
      "count": 4,
      "type": "VEC3",
      "min": [
        -1.0,
        0.0,
        -1.0
      ],
      "max": [
        -1.0,
        2.0,
        1.0
      ]
    },
    {
      "bufferView": 17,
      "componentType": 5126,
      "count": 4,
      "type": "VEC3"
    },
    {
      "bufferView": 18,
      "componentType": 5126,
      "count": 4,
      "type": "VEC2"
    },
    {
      "bufferView": 19,
      "componentType": 5123,
      "count": 6,
      "type": "SCALAR"
    },
    {
      "bufferView": 20,
      "componentType": 5126,
      "count": 24,
      "type": "VEC3",
      "min": [
        -0.0460751,
        -2.98023e-08,
        0.00310463
      ],
      "max": [
        0.703337,
        0.6,
        0.746079
      ]
    },
    {
      "bufferView": 21,
      "componentType": 5126,
      "count": 24,
      "type": "VEC3"
    },
    {
      "bufferView": 22,
      "componentType": 5126,
      "count": 24,
      "type": "VEC2"
    },
    {
      "bufferView": 23,
      "componentType": 5123,
      "count": 36,
      "type": "SCALAR"
    },
    {
      "bufferView": 24,
      "componentType": 5126,
      "count": 24,
      "type": "VEC3",
      "min": [
        -0.720444,
        0.0,
        -0.673479
      ],
      "max": [
        0.0495656,
        1.2,
        0.0906493
      ]
    },
    {
      "bufferView": 25,
      "componentType": 5126,
      "count": 24,
      "type": "VEC3"
    },
    {
      "bufferView": 26,
      "componentType": 5126,
      "count": 24,
      "type": "VEC2"
    },
    {
      "bufferView": 27,
      "componentType": 5123,
      "count": 36,
      "type": "SCALAR"
    },
    {
      "bufferView": 28,
      "componentType": 5126,
      "count": 4,
      "type": "VEC3",
      "min": [
        -0.24,
        1.98,
        -0.22
      ],
      "max": [
        0.23,
        1.98,
        0.16
      ]
    },
    {
      "bufferView": 29,
      "componentType": 5126,
      "count": 4,
      "type": "VEC3"
    },
    {
      "bufferView": 30,
      "componentType": 5126,
      "count": 4,
      "type": "VEC2"
    },
    {
      "bufferView": 31,
      "componentType": 5123,
      "count": 6,
      "type": "SCALAR"
    }
  ],
  "extras": {
    "sourceFormat": "pbrt-v4",
    "sceneId": "cornell-box"
  },
  "cameras": [
    {
      "name": "Camera",
      "type": "perspective",
      "perspective": {
        "yfov": 0.34033920413889424,
        "znear": 0.01,
        "zfar": 100.0
      }
    }
  ]
}
